<mxfile host="app.diagrams.net" agent="Mozilla/5.0 (Windows NT 10.0; Win64; x64) AppleWebKit/537.36 (KHTML, like Gecko) Chrome/140.0.0.0 Safari/537.36 Edg/140.0.0.0" version="28.2.5">
  <diagram name="Seite-1" id="w0aKQhcQ4n9Slu3SarYM">
    <mxGraphModel dx="1722" dy="934" grid="1" gridSize="10" guides="1" tooltips="1" connect="1" arrows="1" fold="1" page="1" pageScale="1" pageWidth="827" pageHeight="1169" math="0" shadow="0">
      <root>
        <mxCell id="0" />
        <mxCell id="1" parent="0" />
        <mxCell id="yF19JqVkhyNu4rhlmW72-12" value="GermanTranslator" style="swimlane;fontStyle=1;align=center;verticalAlign=top;childLayout=stackLayout;horizontal=1;startSize=26;horizontalStack=0;resizeParent=1;resizeParentMax=0;resizeLast=0;collapsible=1;marginBottom=0;whiteSpace=wrap;html=1;" vertex="1" parent="1">
          <mxGeometry x="94" y="290" width="260" height="160" as="geometry" />
        </mxCell>
        <mxCell id="yF19JqVkhyNu4rhlmW72-13" value="+ date : String" style="text;strokeColor=none;fillColor=none;align=left;verticalAlign=top;spacingLeft=4;spacingRight=4;overflow=hidden;rotatable=0;points=[[0,0.5],[1,0.5]];portConstraint=eastwest;whiteSpace=wrap;html=1;" vertex="1" parent="yF19JqVkhyNu4rhlmW72-12">
          <mxGeometry y="26" width="260" height="26" as="geometry" />
        </mxCell>
        <mxCell id="yF19JqVkhyNu4rhlmW72-14" value="" style="line;strokeWidth=1;fillColor=none;align=left;verticalAlign=middle;spacingTop=-1;spacingLeft=3;spacingRight=3;rotatable=0;labelPosition=right;points=[];portConstraint=eastwest;strokeColor=inherit;" vertex="1" parent="yF19JqVkhyNu4rhlmW72-12">
          <mxGeometry y="52" width="260" height="8" as="geometry" />
        </mxCell>
        <mxCell id="yF19JqVkhyNu4rhlmW72-15" value="+ translateNumber(number : int) : String&lt;div&gt;+ setDate(date : String) : void&lt;/div&gt;&lt;div&gt;+ printInfo() : void&lt;/div&gt;" style="text;strokeColor=none;fillColor=none;align=left;verticalAlign=top;spacingLeft=4;spacingRight=4;overflow=hidden;rotatable=0;points=[[0,0.5],[1,0.5]];portConstraint=eastwest;whiteSpace=wrap;html=1;" vertex="1" parent="yF19JqVkhyNu4rhlmW72-12">
          <mxGeometry y="60" width="260" height="100" as="geometry" />
        </mxCell>
        <mxCell id="yF19JqVkhyNu4rhlmW72-27" value="control" style="shape=umlFrame;whiteSpace=wrap;html=1;pointerEvents=0;" vertex="1" parent="1">
          <mxGeometry x="30" y="50" width="390" height="560" as="geometry" />
        </mxCell>
        <mxCell id="yF19JqVkhyNu4rhlmW72-28" value="view" style="shape=umlFrame;whiteSpace=wrap;html=1;pointerEvents=0;" vertex="1" parent="1">
          <mxGeometry x="450" y="102" width="420" height="188" as="geometry" />
        </mxCell>
        <mxCell id="yF19JqVkhyNu4rhlmW72-29" value="test" style="shape=umlFrame;whiteSpace=wrap;html=1;pointerEvents=0;" vertex="1" parent="1">
          <mxGeometry x="450" y="370" width="410" height="240" as="geometry" />
        </mxCell>
        <mxCell id="yF19JqVkhyNu4rhlmW72-36" value="&lt;b&gt;TranslatorFactory&lt;/b&gt;" style="swimlane;fontStyle=0;childLayout=stackLayout;horizontal=1;startSize=26;fillColor=none;horizontalStack=0;resizeParent=1;resizeParentMax=0;resizeLast=0;collapsible=1;marginBottom=0;whiteSpace=wrap;html=1;" vertex="1" parent="1">
          <mxGeometry x="101.5" y="510" width="245" height="52" as="geometry" />
        </mxCell>
        <mxCell id="yF19JqVkhyNu4rhlmW72-37" value="+ createGermanTranslator() : Translator" style="text;strokeColor=none;fillColor=none;align=left;verticalAlign=top;spacingLeft=4;spacingRight=4;overflow=hidden;rotatable=0;points=[[0,0.5],[1,0.5]];portConstraint=eastwest;whiteSpace=wrap;html=1;" vertex="1" parent="yF19JqVkhyNu4rhlmW72-36">
          <mxGeometry y="26" width="245" height="26" as="geometry" />
        </mxCell>
        <mxCell id="yF19JqVkhyNu4rhlmW72-44" style="edgeStyle=orthogonalEdgeStyle;rounded=0;orthogonalLoop=1;jettySize=auto;html=1;exitX=-0.005;exitY=0.309;exitDx=0;exitDy=0;entryX=0.999;entryY=0.424;entryDx=0;entryDy=0;dashed=1;endArrow=open;endFill=0;entryPerimeter=0;exitPerimeter=0;" edge="1" parent="1" source="yF19JqVkhyNu4rhlmW72-42" target="yF19JqVkhyNu4rhlmW72-47">
          <mxGeometry relative="1" as="geometry">
            <mxPoint x="364" y="163" as="targetPoint" />
            <Array as="points">
              <mxPoint x="470" y="193" />
              <mxPoint x="470" y="162" />
            </Array>
          </mxGeometry>
        </mxCell>
        <mxCell id="yF19JqVkhyNu4rhlmW72-41" value="&lt;b&gt;Client&lt;/b&gt;" style="swimlane;fontStyle=0;childLayout=stackLayout;horizontal=1;startSize=26;fillColor=none;horizontalStack=0;resizeParent=1;resizeParentMax=0;resizeLast=0;collapsible=1;marginBottom=0;whiteSpace=wrap;html=1;" vertex="1" parent="1">
          <mxGeometry x="537.5" y="150" width="245" height="80" as="geometry" />
        </mxCell>
        <mxCell id="yF19JqVkhyNu4rhlmW72-42" value="+ display(aNumber : int) : void&lt;div&gt;+ main(args : String[]) : void&lt;/div&gt;" style="text;strokeColor=none;fillColor=none;align=left;verticalAlign=top;spacingLeft=4;spacingRight=4;overflow=hidden;rotatable=0;points=[[0,0.5],[1,0.5]];portConstraint=eastwest;whiteSpace=wrap;html=1;" vertex="1" parent="yF19JqVkhyNu4rhlmW72-41">
          <mxGeometry y="26" width="245" height="54" as="geometry" />
        </mxCell>
        <mxCell id="yF19JqVkhyNu4rhlmW72-47" value="&lt;p style=&quot;margin:0px;margin-top:4px;text-align:center;&quot;&gt;&lt;span style=&quot;background-color: transparent; text-align: left;&quot;&gt;&lt;i&gt;«Interface&lt;/i&gt;&lt;/span&gt;&lt;i style=&quot;color: light-dark(rgb(0, 0, 0), rgb(255, 255, 255)); background-color: transparent;&quot;&gt;»&lt;/i&gt;&lt;br&gt;&lt;b&gt;Translator&lt;/b&gt;&lt;/p&gt;&lt;hr size=&quot;1&quot; style=&quot;border-style:solid;&quot;&gt;&lt;p style=&quot;margin:0px;margin-left:4px;&quot;&gt;+ version : double&lt;br&gt;&lt;/p&gt;&lt;hr size=&quot;1&quot; style=&quot;border-style:solid;&quot;&gt;&lt;p style=&quot;margin:0px;margin-left:4px;&quot;&gt;+ translateNumber(number : int) : String&lt;br&gt;&lt;/p&gt;" style="verticalAlign=top;align=left;overflow=fill;html=1;whiteSpace=wrap;" vertex="1" parent="1">
          <mxGeometry x="79" y="120" width="290" height="100" as="geometry" />
        </mxCell>
        <mxCell id="yF19JqVkhyNu4rhlmW72-50" value="" style="endArrow=block;dashed=1;endFill=0;endSize=12;html=1;rounded=0;exitX=0.5;exitY=0;exitDx=0;exitDy=0;entryX=0.5;entryY=1;entryDx=0;entryDy=0;" edge="1" parent="1" source="yF19JqVkhyNu4rhlmW72-12" target="yF19JqVkhyNu4rhlmW72-47">
          <mxGeometry width="160" relative="1" as="geometry">
            <mxPoint x="200" y="260" as="sourcePoint" />
            <mxPoint x="360" y="260" as="targetPoint" />
          </mxGeometry>
        </mxCell>
        <mxCell id="yF19JqVkhyNu4rhlmW72-51" style="edgeStyle=orthogonalEdgeStyle;rounded=0;orthogonalLoop=1;jettySize=auto;html=1;exitX=0.5;exitY=0;exitDx=0;exitDy=0;entryX=0.499;entryY=1.002;entryDx=0;entryDy=0;entryPerimeter=0;dashed=1;endArrow=open;endFill=0;" edge="1" parent="1" source="yF19JqVkhyNu4rhlmW72-36" target="yF19JqVkhyNu4rhlmW72-15">
          <mxGeometry relative="1" as="geometry" />
        </mxCell>
        <mxCell id="yF19JqVkhyNu4rhlmW72-52" value="«create»" style="edgeLabel;html=1;align=center;verticalAlign=middle;resizable=0;points=[];" vertex="1" connectable="0" parent="yF19JqVkhyNu4rhlmW72-51">
          <mxGeometry x="-0.0078" y="-1" relative="1" as="geometry">
            <mxPoint as="offset" />
          </mxGeometry>
        </mxCell>
        <mxCell id="yF19JqVkhyNu4rhlmW72-57" value="&lt;p style=&quot;margin:0px;margin-top:4px;text-align:center;&quot;&gt;&lt;/p&gt;&lt;div style=&quot;text-align: center;&quot;&gt;&lt;span style=&quot;background-color: transparent; text-align: left;&quot;&gt;&lt;i&gt;«T&lt;/i&gt;&lt;/span&gt;&lt;i style=&quot;background-color: transparent; color: light-dark(rgb(0, 0, 0), rgb(255, 255, 255));&quot;&gt;est»&lt;/i&gt;&lt;/div&gt;&lt;b&gt;&lt;div style=&quot;text-align: center;&quot;&gt;&lt;b style=&quot;background-color: transparent; color: light-dark(rgb(0, 0, 0), rgb(255, 255, 255));&quot;&gt;GermanTranslatorTest&lt;/b&gt;&lt;/div&gt;&lt;/b&gt;&lt;p&gt;&lt;/p&gt;&lt;hr size=&quot;1&quot; style=&quot;text-align: center; border-style: solid;&quot;&gt;&lt;p style=&quot;margin:0px;margin-left:4px;&quot;&gt;+ testValidNumbers() : void&lt;/p&gt;&lt;p style=&quot;margin:0px;margin-left:4px;&quot;&gt;+ testTooSmallNumber() : void&lt;/p&gt;&lt;p style=&quot;margin:0px;margin-left:4px;&quot;&gt;+ testTooLargeNumber() : void&lt;/p&gt;" style="verticalAlign=top;align=left;overflow=fill;html=1;whiteSpace=wrap;" vertex="1" parent="1">
          <mxGeometry x="485" y="432" width="355" height="130" as="geometry" />
        </mxCell>
        <mxCell id="yF19JqVkhyNu4rhlmW72-58" style="edgeStyle=orthogonalEdgeStyle;rounded=0;orthogonalLoop=1;jettySize=auto;html=1;exitX=0;exitY=0.5;exitDx=0;exitDy=0;entryX=0.999;entryY=0.793;entryDx=0;entryDy=0;entryPerimeter=0;dashed=1;endArrow=open;endFill=0;" edge="1" parent="1" source="yF19JqVkhyNu4rhlmW72-57" target="yF19JqVkhyNu4rhlmW72-15">
          <mxGeometry relative="1" as="geometry">
            <Array as="points">
              <mxPoint x="410" y="497" />
              <mxPoint x="410" y="429" />
            </Array>
          </mxGeometry>
        </mxCell>
        <mxCell id="yF19JqVkhyNu4rhlmW72-61" style="edgeStyle=orthogonalEdgeStyle;rounded=0;orthogonalLoop=1;jettySize=auto;html=1;exitX=0.502;exitY=0.988;exitDx=0;exitDy=0;entryX=1;entryY=0.25;entryDx=0;entryDy=0;dashed=1;endArrow=open;endFill=0;exitPerimeter=0;" edge="1" parent="1" source="yF19JqVkhyNu4rhlmW72-42" target="yF19JqVkhyNu4rhlmW72-36">
          <mxGeometry relative="1" as="geometry">
            <mxPoint x="601" y="488" as="sourcePoint" />
            <mxPoint x="470" y="420" as="targetPoint" />
            <Array as="points">
              <mxPoint x="661" y="330" />
              <mxPoint x="390" y="330" />
              <mxPoint x="390" y="523" />
            </Array>
          </mxGeometry>
        </mxCell>
        <mxCell id="yF19JqVkhyNu4rhlmW72-62" value="«use»" style="edgeLabel;html=1;align=center;verticalAlign=middle;resizable=0;points=[];" vertex="1" connectable="0" parent="yF19JqVkhyNu4rhlmW72-61">
          <mxGeometry x="-0.389" y="-2" relative="1" as="geometry">
            <mxPoint as="offset" />
          </mxGeometry>
        </mxCell>
      </root>
    </mxGraphModel>
  </diagram>
</mxfile>
